<svg width="1000" height="1000" viewBox="0 0 1000 1000" fill="none" xmlns="http://www.w3.org/2000/svg">
<rect width="1000" height="1000" rx="175" fill="white"/>
<g clip-path="url(#clip0)">
<path d="M807.473 339.699C815.607 347.361 814.505 360.565 805.212 366.771C787.283 378.745 760.114 394.275 726.854 391.498C725.224 391.362 722.529 391.687 720.926 391.466C671.278 384.635 635.181 338.726 635.181 338.726C635.181 338.726 670.438 306.676 714.175 301.581C720.423 300.853 726.844 301.944 733.36 302.488C766.619 305.266 791.779 324.917 807.473 339.699V339.699Z" fill="#BBF49B"/>
<path d="M810.012 339.699C794.317 324.917 766.619 303.996 733.359 301.218C726.369 300.634 719.495 300.901 712.822 301.767C743.916 306.047 769.7 325.643 784.624 339.699C792.758 347.361 791.656 360.565 782.363 366.771C768.201 376.229 746.014 388.213 720.926 391.466C722.529 391.687 724.146 391.866 725.776 392.003C759.036 394.781 789.822 378.745 807.751 366.773C817.044 360.565 818.148 347.361 810.012 339.699Z" fill="#9BE69D"/>
<path d="M650.425 323.707L650.42 323.703C667.462 293.568 672.921 268.454 657.902 247.621C651.284 239.355 639.219 238.02 630.954 244.639L630.953 244.64C622.688 251.259 621.354 263.324 627.972 271.588C635.038 280.4 627.935 293.08 619.178 305.025L586.975 346.81L622.52 370.083L643.015 336.021C645.631 331.897 648.061 327.864 650.3 323.913L650.425 323.707Z" fill="#B67F5F"/>
<path d="M699.066 482.453C699.066 362.536 606.411 284.492 486.494 284.492C479.885 284.492 473.395 283.534 467.027 284.142C357.856 294.56 284.901 392.19 273.986 504.971C267.056 576.578 197.468 635.934 197.468 635.934C164.216 686.881 198.838 754.678 259.607 757.575C359.827 762.353 487.305 764.831 593.862 686.857C647.682 647.473 699.066 568.877 699.066 482.453Z" fill="#8880FF"/>
<path d="M486.494 283.223C480.752 283.223 475.102 283.461 469.542 283.922C580.403 291.905 666.753 369 666.753 482.453C666.753 568.877 615.369 647.473 561.549 686.858C483.945 743.645 393.227 757.756 310.943 759.389C402.043 761.015 508.512 752.1 597.67 686.858C651.49 647.475 702.874 568.877 702.874 482.453C702.874 362.537 606.411 283.223 486.494 283.223Z" fill="#665DFE"/>
<path d="M385.28 748.116C340.4 751.439 297.112 749.832 260.06 748.064C234.982 746.87 213.189 732.809 201.765 710.455C190.529 688.47 191.666 663.059 204.75 642.218C214.216 633.862 276.651 576.287 283.463 505.888C290.878 429.262 327.961 361.376 382.66 324.293C387.013 321.341 388.149 315.422 385.199 311.069C382.247 306.716 376.327 305.578 371.975 308.531C312.639 348.758 272.464 421.851 264.51 504.054C258.042 570.891 191.952 628.123 191.29 628.689C190.598 629.28 189.994 629.966 189.495 630.729C171.986 657.556 170.234 690.6 184.809 719.119C199.379 747.628 227.171 765.559 259.153 767.085C280.753 768.114 304.447 769.091 329.411 769.091C347.917 769.091 367.124 768.555 386.684 767.106C391.928 766.718 395.864 762.153 395.476 756.909C395.089 751.666 390.533 747.713 385.28 748.116Z" fill="#665DFE"/>
<path d="M816.535 332.765C809.04 325.706 801.134 319.365 793.035 313.92C788.671 310.985 782.756 312.144 779.821 316.51C776.887 320.874 778.046 326.79 782.41 329.723C789.648 334.591 796.737 340.278 803.479 346.628C805.882 348.891 806.044 351.585 805.926 352.99C805.81 354.394 805.203 357.025 802.457 358.858C787.545 368.815 757.852 385.127 726.567 382.515C709.314 381.074 691.648 374.04 674.038 361.634C667.823 353.13 660.89 345.095 653.271 337.594C653.596 337.071 653.917 336.546 654.24 336.02C670.378 324.841 700.48 308.021 732.565 310.706C737.449 311.113 742.444 311.988 747.412 313.303C752.495 314.65 757.706 311.62 759.053 306.537C760.4 301.454 757.369 296.241 752.286 294.896C746.243 293.295 740.14 292.23 734.148 291.728C710.397 289.743 687.998 296.502 670.063 304.946C678.254 283.499 679.793 261.707 665.623 242.052C665.529 241.921 665.432 241.794 665.332 241.669C660.541 235.687 653.708 231.927 646.091 231.085C638.473 230.243 630.983 232.417 625 237.208C619.018 241.999 615.26 248.832 614.417 256.45C613.574 264.068 615.748 271.558 620.544 277.546C624.104 281.984 615.046 294.826 608.078 303.928C572.7 284.246 530.868 273.702 486.494 273.702C459.643 273.702 433.819 278.633 409.743 288.357C404.867 290.326 402.51 295.875 404.481 300.751C406.45 305.625 411.998 307.983 416.874 306.014C438.675 297.209 462.099 292.745 486.495 292.745C543.346 292.745 595.489 311.296 633.323 344.981C643.044 353.636 651.626 363.065 659.045 373.181C659.414 373.851 659.857 374.489 660.393 375.064C682.059 405.451 693.354 441.929 693.354 482.454C693.354 567.137 642.473 642.275 592.049 679.175C545.753 713.053 491.088 734.198 424.93 743.822C419.727 744.579 416.123 749.41 416.879 754.615C417.569 759.354 421.637 762.766 426.29 762.766C426.746 762.766 427.208 762.733 427.672 762.666C496.982 752.584 554.429 730.301 603.295 694.543C657.601 654.804 712.397 573.812 712.397 482.455C712.397 450.754 705.746 420.694 693.092 393.761C703.712 398.015 714.368 400.604 724.985 401.491C727.867 401.731 730.721 401.847 733.557 401.847C765.362 401.847 793.995 387.408 813.035 374.694C819.894 370.114 824.221 362.782 824.906 354.576C825.59 346.369 822.54 338.419 816.535 332.765ZM635.403 265.636C633.791 263.624 633.06 261.105 633.344 258.543C633.627 255.982 634.892 253.683 636.904 252.071C638.916 250.46 641.435 249.727 643.998 250.011C646.488 250.287 648.73 251.49 650.335 253.407C661.952 269.75 658.763 291.109 639.471 323.606C639.209 323.935 638.971 324.275 638.759 324.63C634.131 320.879 629.333 317.323 624.379 313.964C635.689 299.055 647.376 280.564 635.403 265.636Z" fill="#665DFE"/>
</g>
<defs>
<clipPath id="clip0">
<rect width="650" height="650" fill="white" transform="translate(175 175)"/>
</clipPath>
</defs>
</svg>
